<?xml version="1.0" standalone="no"?>
<!DOCTYPE svg PUBLIC "-//W3C//DTD SVG 20010904//EN"
 "http://www.w3.org/TR/2001/REC-SVG-20010904/DTD/svg10.dtd">
<svg version="1.0" xmlns="http://www.w3.org/2000/svg"
 width="346.000000pt" height="346.000000pt" viewBox="0 0 346.000000 346.000000"
 preserveAspectRatio="xMidYMid meet">
<metadata>
Created by potrace 1.11, written by Peter Selinger 2001-2013
</metadata>
<g transform="translate(0.000000,346.000000) scale(0.100000,-0.100000)"
fill="#000000" stroke="none">
<path d="M919 3146 c-2 -2 -20 -5 -39 -7 -19 -2 -39 -5 -45 -8 -5 -3 -21 -7
-34 -9 -24 -3 -77 -24 -151 -60 -109 -53 -244 -167 -327 -277 -30 -40 -106
-175 -98 -175 2 0 -5 -19 -15 -43 -10 -23 -21 -56 -24 -72 -3 -17 -10 -54 -16
-84 -13 -70 -13 -234 1 -302 6 -30 13 -67 16 -84 3 -16 11 -42 19 -57 8 -15
15 -35 17 -45 3 -22 78 -157 89 -161 4 -2 8 -10 8 -17 0 -7 3 -15 8 -17 4 -2
18 -16 30 -33 23 -29 213 -223 986 -1003 382 -386 389 -393 409 -375 33 30
1256 1266 1350 1365 15 16 27 32 27 35 0 4 7 14 15 23 20 22 85 130 85 141 0
5 11 33 25 63 14 31 25 59 24 63 -1 4 0 11 1 16 1 4 4 12 5 17 1 6 3 11 5 13
6 7 11 66 16 182 5 108 2 145 -14 220 -11 50 -28 108 -37 130 -10 22 -17 41
-17 42 1 2 -23 46 -79 143 -22 39 -216 230 -233 230 -9 0 -16 4 -16 8 0 10
-173 96 -215 107 -16 5 -32 9 -35 10 -63 17 -173 26 -269 22 -64 -3 -123 -7
-131 -10 -8 -2 -34 -8 -58 -12 -23 -4 -45 -12 -48 -16 -3 -5 -12 -9 -20 -9
-34 0 -202 -89 -212 -112 -2 -5 -9 -8 -16 -8 -7 0 -22 -10 -33 -22 -12 -13
-42 -42 -67 -65 -25 -24 -46 -47 -46 -52 0 -28 -32 -11 -86 44 -34 34 -97 86
-140 116 -77 51 -232 125 -242 114 -3 -2 -11 0 -19 6 -7 6 -13 9 -13 7 0 -3
-26 1 -57 8 -52 12 -274 20 -284 10z"/>
</g>
</svg>
