<?xml version="1.0" standalone="no"?>
<!DOCTYPE svg PUBLIC "-//W3C//DTD SVG 20010904//EN"
 "http://www.w3.org/TR/2001/REC-SVG-20010904/DTD/svg10.dtd">
<svg version="1.0" xmlns="http://www.w3.org/2000/svg"
 width="346.000000pt" height="346.000000pt" viewBox="0 0 346.000000 346.000000"
 preserveAspectRatio="xMidYMid meet">
<metadata>
Created by potrace 1.11, written by Peter Selinger 2001-2013
</metadata>
<g transform="translate(0.000000,346.000000) scale(0.100000,-0.100000)"
fill="#000000" stroke="none">
<path d="M1070 2780 c-224 -36 -423 -210 -490 -428 -38 -125 -34 -277 12 -402
44 -116 93 -173 624 -708 l519 -524 400 404 c717 722 707 711 754 861 88 286
-38 594 -299 731 -102 53 -170 70 -290 69 -127 0 -230 -30 -327 -93 -76 -50
-169 -150 -209 -224 l-29 -55 -30 57 c-38 71 -129 170 -207 222 -111 74 -292
112 -428 90z"/>
</g>
</svg>
