<?xml version="1.0" standalone="no"?>
<!DOCTYPE svg PUBLIC "-//W3C//DTD SVG 20010904//EN"
 "http://www.w3.org/TR/2001/REC-SVG-20010904/DTD/svg10.dtd">
<svg version="1.0" xmlns="http://www.w3.org/2000/svg"
 width="500.000000pt" height="500.000000pt" viewBox="0 0 500.000000 500.000000"
 preserveAspectRatio="xMidYMid meet">
<metadata>
Created by potrace 1.11, written by Peter Selinger 2001-2013
</metadata>
<g transform="translate(0.000000,500.000000) scale(0.100000,-0.100000)"
fill="#000000" stroke="none">
<path d="M2009 4636 c-2 -3 -8 -43 -14 -107 -4 -41 -8 -85 -10 -99 -1 -14 -5
-56 -9 -95 -4 -38 -9 -86 -11 -105 -9 -81 -14 -129 -21 -195 -3 -38 -8 -77 -9
-86 -4 -20 -18 -167 -19 -191 0 -10 -3 -18 -6 -19 -8 -1 -87 -7 -175 -13 -138
-9 -279 -18 -305 -21 l-25 -2 0 -289 0 -289 233 0 c226 0 232 0 232 -20 0 -11
2 -411 4 -890 2 -478 7 -890 10 -915 36 -235 79 -371 167 -522 136 -232 405
-388 714 -413 126 -11 342 -5 420 11 11 3 36 7 55 10 90 14 328 79 344 94 8 8
-1 54 -56 280 -16 69 -31 132 -33 140 -14 64 -34 143 -38 146 -2 3 -27 -4 -55
-15 -68 -27 -200 -51 -282 -51 -178 0 -298 59 -377 183 -36 56 -71 164 -79
240 -7 61 -13 1692 -7 1712 2 7 147 10 418 10 l415 0 1 30 c1 46 1 526 0 556
l-1 27 -410 0 c-226 0 -414 3 -418 7 -4 3 -7 205 -7 448 l0 442 -322 1 c-178
0 -323 0 -324 0z"/>
</g>
</svg>
